<?xml version="1.0" encoding="UTF-8"?>
<svg xmlns="http://www.w3.org/2000/svg" xmlns:xlink="http://www.w3.org/1999/xlink" width="118px" height="118px" viewBox="0 0 118 118" version="1.1">
<g id="surface1">
<path style=" stroke:none;fill-rule:nonzero;fill:rgb(0%,0%,0%);fill-opacity:1;" d="M 44.808594 74.984375 C 36.46875 74.984375 29.699219 73.195312 29.699219 70.992188 L 29.699219 108.464844 C 29.699219 110.671875 36.464844 112.460938 44.808594 112.460938 C 53.152344 112.460938 59.917969 110.667969 59.917969 108.464844 L 59.917969 70.988281 C 59.917969 73.195312 53.148438 74.984375 44.808594 74.984375 Z M 44.808594 74.984375 "/>
<path style=" stroke:none;fill-rule:nonzero;fill:rgb(0%,0%,0%);fill-opacity:1;" d="M 46.882812 49.316406 C 39.300781 53.359375 35.105469 61.507812 41.96875 70.78125 C 45.164062 65.941406 44.335938 59.195312 44.335938 59.195312 C 44.335938 59.195312 46.050781 63.027344 47.257812 68.765625 C 55.980469 58.996094 47.261719 54.164062 46.882812 49.316406 Z M 46.882812 49.316406 "/>
<path style=" stroke:none;fill-rule:nonzero;fill:rgb(0%,0%,0%);fill-opacity:1;" d="M 75.453125 65.382812 C 69.292969 65.382812 64.292969 64.0625 64.292969 62.425781 L 64.292969 115.046875 C 64.292969 116.679688 69.292969 118 75.453125 118 C 81.617188 118 86.617188 116.679688 86.617188 115.046875 L 86.617188 62.425781 C 86.617188 64.0625 81.617188 65.382812 75.453125 65.382812 Z M 75.453125 65.382812 "/>
<path style=" stroke:none;fill-rule:nonzero;fill:rgb(0%,0%,0%);fill-opacity:1;" d="M 74.984375 50.640625 C 74.984375 50.640625 76.703125 54.46875 77.90625 60.207031 C 86.628906 50.441406 77.90625 45.609375 77.53125 40.761719 C 69.945312 44.800781 65.75 52.953125 72.617188 62.21875 C 75.808594 57.386719 74.984375 50.640625 74.984375 50.640625 Z M 74.984375 50.640625 "/>
<path style=" stroke:none;fill-rule:nonzero;fill:rgb(0%,0%,0%);fill-opacity:1;" d="M 30.691406 23.117188 C 32 25.386719 33.5625 25.96875 34.699219 25.316406 C 35.835938 24.660156 36.113281 23.019531 34.800781 20.75 C 34.40625 20.058594 33.796875 19.453125 33.152344 18.9375 C 33.921875 19.246094 34.746094 19.464844 35.539062 19.464844 C 38.164062 19.464844 39.441406 18.398438 39.441406 17.085938 C 39.441406 15.777344 38.164062 14.714844 35.539062 14.714844 C 34.746094 14.714844 33.917969 14.933594 33.152344 15.234375 C 33.796875 14.722656 34.402344 14.121094 34.800781 13.425781 C 36.109375 11.15625 35.832031 9.515625 34.699219 8.863281 C 33.5625 8.210938 32 8.785156 30.691406 11.054688 C 30.292969 11.742188 30.066406 12.574219 29.953125 13.390625 C 29.828125 12.574219 29.609375 11.742188 29.210938 11.054688 C 27.902344 8.785156 26.34375 8.210938 25.207031 8.863281 C 24.066406 9.515625 23.789062 11.15625 25.101562 13.425781 C 25.496094 14.113281 26.105469 14.71875 26.753906 15.234375 C 25.984375 14.929688 25.152344 14.710938 24.359375 14.710938 C 21.734375 14.710938 20.457031 15.773438 20.457031 17.085938 C 20.457031 18.394531 21.734375 19.460938 24.359375 19.460938 C 25.152344 19.460938 25.980469 19.246094 26.753906 18.933594 C 26.101562 19.449219 25.496094 20.058594 25.097656 20.746094 C 23.789062 23.015625 24.070312 24.652344 25.207031 25.304688 C 26.339844 25.964844 27.902344 25.382812 29.210938 23.117188 C 29.609375 22.425781 29.832031 21.597656 29.953125 20.78125 C 30.070312 21.601562 30.292969 22.429688 30.691406 23.117188 Z M 28.304688 18.035156 C 27.78125 17.128906 28.09375 15.96875 29 15.445312 C 29.910156 14.917969 31.066406 15.230469 31.59375 16.140625 C 32.117188 17.046875 31.808594 18.210938 30.902344 18.730469 C 29.988281 19.257812 28.828125 18.945312 28.304688 18.035156 Z M 28.304688 18.035156 "/>
<path style=" stroke:none;fill-rule:nonzero;fill:rgb(0%,0%,0%);fill-opacity:1;" d="M 66.976562 32.765625 C 67.433594 31.066406 66.148438 29.246094 62.753906 28.335938 C 61.726562 28.066406 60.574219 28.0625 59.476562 28.1875 C 60.492188 27.75 61.484375 27.175781 62.238281 26.417969 C 64.726562 23.933594 64.933594 21.714844 63.6875 20.472656 C 62.445312 19.230469 60.222656 19.433594 57.738281 21.921875 C 56.984375 22.671875 56.410156 23.667969 55.96875 24.683594 C 56.097656 23.585938 56.097656 22.4375 55.820312 21.40625 C 54.910156 18.011719 53.089844 16.722656 51.390625 17.175781 C 49.695312 17.632812 48.761719 19.65625 49.671875 23.050781 C 49.949219 24.085938 50.523438 25.078125 51.183594 25.96875 C 50.296875 25.304688 49.300781 24.734375 48.269531 24.453125 C 44.871094 23.542969 42.847656 24.476562 42.394531 26.175781 C 41.9375 27.875 43.222656 29.695312 46.621094 30.601562 C 47.652344 30.875 48.800781 30.882812 49.902344 30.75 C 48.882812 31.191406 47.890625 31.769531 47.132812 32.519531 C 44.648438 35.003906 44.445312 37.222656 45.6875 38.46875 C 46.925781 39.714844 49.152344 39.507812 51.632812 37.019531 C 52.390625 36.269531 52.960938 35.273438 53.402344 34.257812 C 53.273438 35.355469 53.277344 36.5 53.554688 37.535156 C 54.457031 40.929688 56.277344 42.21875 57.980469 41.765625 C 59.675781 41.308594 60.609375 39.285156 59.699219 35.890625 C 59.421875 34.855469 58.851562 33.863281 58.1875 32.972656 C 59.074219 33.632812 60.070312 34.203125 61.101562 34.484375 C 64.503906 35.398438 66.527344 34.464844 66.976562 32.765625 Z M 55.347656 31.929688 C 53.988281 32.292969 52.59375 31.488281 52.234375 30.128906 C 51.867188 28.769531 52.671875 27.378906 54.03125 27.015625 C 55.390625 26.652344 56.78125 27.457031 57.148438 28.816406 C 57.503906 30.167969 56.703125 31.566406 55.347656 31.929688 Z M 55.347656 31.929688 "/>
<path style=" stroke:none;fill-rule:nonzero;fill:rgb(0%,0%,0%);fill-opacity:1;" d="M 49.152344 7.449219 C 49.714844 7.527344 50.316406 7.457031 50.886719 7.320312 C 50.378906 7.613281 49.894531 7.980469 49.546875 8.421875 C 48.40625 9.890625 48.441406 11.070312 49.171875 11.640625 C 49.90625 12.214844 51.058594 11.964844 52.203125 10.5 C 52.550781 10.054688 52.792969 9.496094 52.953125 8.9375 C 52.953125 9.519531 53.035156 10.121094 53.242188 10.648438 C 53.9375 12.371094 54.980469 12.925781 55.835938 12.578125 C 56.703125 12.234375 57.058594 11.109375 56.363281 9.382812 C 56.148438 8.863281 55.785156 8.375 55.382812 7.949219 C 55.890625 8.238281 56.453125 8.476562 57.011719 8.558594 C 58.847656 8.816406 59.855469 8.195312 59.988281 7.277344 C 60.113281 6.351562 59.324219 5.484375 57.476562 5.222656 C 56.917969 5.148438 56.316406 5.21875 55.746094 5.355469 C 56.253906 5.058594 56.738281 4.699219 57.085938 4.25 C 58.230469 2.789062 58.195312 1.605469 57.460938 1.035156 C 56.726562 0.464844 55.574219 0.714844 54.429688 2.179688 C 54.082031 2.621094 53.847656 3.183594 53.683594 3.738281 C 53.679688 3.160156 53.605469 2.554688 53.394531 2.03125 C 52.695312 0.3125 51.660156 -0.25 50.796875 0.0976562 C 49.933594 0.445312 49.574219 1.566406 50.269531 3.289062 C 50.480469 3.8125 50.847656 4.296875 51.25 4.722656 C 50.742188 4.4375 50.183594 4.199219 49.625 4.117188 C 47.785156 3.859375 46.78125 4.480469 46.65625 5.402344 C 46.519531 6.320312 47.316406 7.191406 49.152344 7.449219 Z M 53.503906 5.007812 C 54.234375 5.109375 54.753906 5.789062 54.648438 6.527344 C 54.550781 7.261719 53.863281 7.773438 53.132812 7.671875 C 52.394531 7.566406 51.882812 6.886719 51.984375 6.152344 C 52.085938 5.414062 52.765625 4.902344 53.503906 5.007812 Z M 53.503906 5.007812 "/>
<path style=" stroke:none;fill-rule:nonzero;fill:rgb(0%,0%,0%);fill-opacity:1;" d="M 76.992188 17.699219 C 77.417969 17.761719 77.871094 17.707031 78.300781 17.605469 C 77.914062 17.824219 77.554688 18.105469 77.289062 18.4375 C 76.421875 19.539062 76.449219 20.433594 77.003906 20.863281 C 77.558594 21.296875 78.429688 21.105469 79.292969 20.003906 C 79.554688 19.664062 79.734375 19.246094 79.863281 18.820312 C 79.863281 19.261719 79.921875 19.71875 80.078125 20.113281 C 80.601562 21.417969 81.386719 21.835938 82.039062 21.574219 C 82.6875 21.3125 82.960938 20.464844 82.433594 19.164062 C 82.273438 18.765625 82 18.398438 81.695312 18.078125 C 82.078125 18.296875 82.5 18.472656 82.921875 18.539062 C 84.3125 18.734375 85.074219 18.265625 85.171875 17.570312 C 85.265625 16.875 84.667969 16.214844 83.277344 16.023438 C 82.859375 15.960938 82.402344 16.019531 81.972656 16.125 C 82.355469 15.898438 82.722656 15.621094 82.980469 15.285156 C 83.851562 14.183594 83.824219 13.289062 83.265625 12.855469 C 82.710938 12.425781 81.84375 12.617188 80.980469 13.722656 C 80.714844 14.058594 80.539062 14.484375 80.414062 14.90625 C 80.410156 14.464844 80.351562 14.007812 80.195312 13.613281 C 79.671875 12.3125 78.882812 11.890625 78.234375 12.152344 C 77.582031 12.410156 77.308594 13.261719 77.839844 14.5625 C 77.996094 14.957031 78.273438 15.324219 78.578125 15.648438 C 78.195312 15.433594 77.769531 15.253906 77.351562 15.191406 C 75.957031 14.996094 75.203125 15.460938 75.105469 16.15625 C 75 16.847656 75.601562 17.507812 76.992188 17.699219 Z M 80.277344 15.855469 C 80.832031 15.929688 81.222656 16.445312 81.144531 17 C 81.066406 17.554688 80.550781 17.941406 79.996094 17.867188 C 79.4375 17.789062 79.050781 17.273438 79.128906 16.71875 C 79.207031 16.164062 79.722656 15.777344 80.277344 15.855469 Z M 80.277344 15.855469 "/>
<path style=" stroke:none;fill-rule:nonzero;fill:rgb(0%,0%,0%);fill-opacity:1;" d="M 25.664062 41.015625 C 25.246094 40.957031 24.789062 41.011719 24.359375 41.113281 C 24.742188 40.894531 25.105469 40.613281 25.367188 40.277344 C 26.238281 39.175781 26.210938 38.285156 25.652344 37.847656 C 25.097656 37.417969 24.230469 37.609375 23.367188 38.714844 C 23.101562 39.050781 22.925781 39.472656 22.800781 39.894531 C 22.796875 39.457031 22.738281 39 22.578125 38.601562 C 22.054688 37.304688 21.269531 36.882812 20.621094 37.144531 C 19.972656 37.40625 19.695312 38.25 20.222656 39.554688 C 20.386719 39.949219 20.660156 40.316406 20.964844 40.636719 C 20.582031 40.421875 20.15625 40.242188 19.734375 40.179688 C 18.34375 39.984375 17.585938 40.457031 17.492188 41.148438 C 17.394531 41.84375 17.996094 42.503906 19.378906 42.695312 C 19.804688 42.757812 20.257812 42.703125 20.6875 42.601562 C 20.304688 42.820312 19.9375 43.101562 19.675781 43.433594 C 18.808594 44.535156 18.835938 45.429688 19.390625 45.859375 C 19.945312 46.292969 20.8125 46.105469 21.679688 45 C 21.941406 44.664062 22.121094 44.242188 22.25 43.820312 C 22.25 44.257812 22.308594 44.714844 22.464844 45.109375 C 22.992188 46.414062 23.773438 46.832031 24.425781 46.570312 C 25.078125 46.308594 25.347656 45.460938 24.820312 44.160156 C 24.660156 43.761719 24.386719 43.394531 24.082031 43.074219 C 24.46875 43.292969 24.886719 43.472656 25.3125 43.535156 C 26.699219 43.730469 27.460938 43.261719 27.558594 42.566406 C 27.65625 41.867188 27.058594 41.210938 25.664062 41.015625 Z M 22.382812 42.863281 C 21.824219 42.785156 21.4375 42.273438 21.511719 41.714844 C 21.589844 41.160156 22.101562 40.773438 22.664062 40.851562 C 23.214844 40.925781 23.609375 41.441406 23.527344 41.996094 C 23.453125 42.558594 22.933594 42.941406 22.382812 42.863281 Z M 22.382812 42.863281 "/>
<path style=" stroke:none;fill-rule:nonzero;fill:rgb(0%,0%,0%);fill-opacity:1;" d="M 97.371094 28.105469 C 96.675781 28.003906 95.914062 28.089844 95.203125 28.257812 C 95.832031 27.894531 96.441406 27.445312 96.890625 26.878906 C 98.328125 25.054688 98.296875 23.578125 97.382812 22.855469 C 96.472656 22.132812 95.019531 22.433594 93.578125 24.261719 C 93.140625 24.8125 92.835938 25.511719 92.628906 26.21875 C 92.625 25.484375 92.535156 24.726562 92.277344 24.070312 C 91.414062 21.902344 90.121094 21.195312 89.035156 21.628906 C 87.953125 22.054688 87.496094 23.457031 88.355469 25.621094 C 88.613281 26.28125 89.066406 26.890625 89.570312 27.433594 C 88.941406 27.066406 88.238281 26.765625 87.542969 26.65625 C 85.234375 26.316406 83.96875 27.09375 83.804688 28.242188 C 83.632812 29.398438 84.621094 30.492188 86.925781 30.835938 C 87.621094 30.933594 88.382812 30.851562 89.097656 30.679688 C 88.457031 31.046875 87.855469 31.503906 87.410156 32.058594 C 85.964844 33.878906 86 35.355469 86.917969 36.082031 C 87.824219 36.8125 89.277344 36.503906 90.722656 34.671875 C 91.15625 34.125 91.46875 33.421875 91.675781 32.722656 C 91.675781 33.457031 91.765625 34.210938 92.027344 34.867188 C 92.886719 37.03125 94.183594 37.742188 95.269531 37.3125 C 96.355469 36.878906 96.808594 35.480469 95.949219 33.3125 C 95.6875 32.65625 95.234375 32.042969 94.734375 31.503906 C 95.367188 31.871094 96.066406 32.171875 96.769531 32.277344 C 99.074219 32.621094 100.332031 31.847656 100.5 30.691406 C 100.667969 29.546875 99.675781 28.445312 97.371094 28.105469 Z M 92.769531 31.039062 C 91.902344 31.386719 90.921875 30.960938 90.582031 30.097656 C 90.238281 29.230469 90.65625 28.246094 91.523438 27.902344 C 92.390625 27.558594 93.371094 27.984375 93.714844 28.851562 C 94.058594 29.710938 93.636719 30.699219 92.769531 31.039062 Z M 92.769531 31.039062 "/>
</g>
</svg>
