<?xml version="1.0" encoding="UTF-8"?>
<svg xmlns="http://www.w3.org/2000/svg" xmlns:xlink="http://www.w3.org/1999/xlink" width="52px" height="52px" viewBox="0 0 52 52" version="1.1">
<g id="surface1">
<path style=" stroke:none;fill-rule:nonzero;fill:rgb(0%,0%,0%);fill-opacity:1;" d="M 29.886719 20.808594 C 35.414062 13.992188 30.148438 5.0625 24.121094 0 C 25.25 5.507812 16.109375 13.253906 22.019531 20.820312 C 14.457031 21.214844 8.8125 22.675781 8.8125 24.4375 L 8.8125 48.265625 C 8.8125 50.328125 16.507812 52 26 52 C 35.496094 52 43.191406 50.328125 43.191406 48.265625 L 43.191406 24.4375 C 43.191406 22.667969 37.496094 21.195312 29.886719 20.808594 Z M 26 27.417969 C 15.15625 27.417969 9.5625 25.332031 9.5625 24.4375 C 9.5625 23.542969 14.183594 21.914062 22.628906 21.554688 C 23.210938 22.191406 23.871094 22.828125 24.695312 23.460938 C 23.855469 22.699219 23.320312 21.953125 22.980469 21.214844 L 22.78125 20.777344 C 21.480469 17.070312 25.34375 13.488281 26.089844 9.082031 C 28.734375 13.359375 30.953125 17.488281 29.214844 21.03125 L 29.097656 21.25 C 28.839844 21.722656 28.527344 22.183594 28.121094 22.632812 C 28.542969 22.28125 28.902344 21.914062 29.25 21.546875 C 37.773438 21.898438 42.433594 23.542969 42.433594 24.441406 C 42.4375 25.332031 36.84375 27.417969 26 27.417969 Z M 26 27.417969 "/>
<path style=" stroke:none;fill-rule:nonzero;fill:rgb(0%,0%,0%);fill-opacity:1;" d="M 26 17.25 C 25.585938 17.25 25.25 17.585938 25.25 18 L 25.25 24.4375 C 25.25 24.855469 25.589844 25.191406 26 25.191406 C 26.417969 25.191406 26.753906 24.855469 26.753906 24.4375 L 26.753906 18 C 26.753906 17.585938 26.417969 17.25 26 17.25 Z M 26 17.25 "/>
</g>
</svg>
