<?xml version="1.0" encoding="UTF-8"?>
<svg xmlns="http://www.w3.org/2000/svg" xmlns:xlink="http://www.w3.org/1999/xlink" width="52px" height="52px" viewBox="0 0 52 52" version="1.1">
<g id="surface1">
<path style=" stroke:none;fill-rule:nonzero;fill:rgb(0%,0%,0%);fill-opacity:1;" d="M 41.007812 10.179688 L 36.597656 0.847656 C 35.945312 -0.28125 34.3125 -0.28125 33.660156 0.847656 L 29.25 10.179688 C 28.675781 11.175781 28.347656 12.332031 28.347656 13.566406 C 28.347656 17.417969 31.558594 20.519531 35.449219 20.339844 C 38.929688 20.179688 41.753906 17.351562 41.90625 13.871094 C 41.964844 12.523438 41.628906 11.257812 41.007812 10.179688 Z M 35.128906 16.957031 C 33.257812 16.957031 31.738281 15.4375 31.738281 13.566406 C 31.738281 12.960938 31.890625 12.390625 32.1875 11.875 L 35.128906 5.085938 L 38.070312 11.875 C 38.367188 12.390625 38.519531 12.960938 38.519531 13.566406 C 38.519531 15.4375 37 16.957031 35.128906 16.957031 Z M 35.128906 16.957031 "/>
<path style=" stroke:none;fill-rule:nonzero;fill:rgb(0%,0%,0%);fill-opacity:1;" d="M 50.214844 41.828125 L 45.300781 41.828125 L 45.300781 25.433594 C 45.300781 24.5 44.542969 23.738281 43.605469 23.738281 L 26.648438 23.738281 C 25.710938 23.738281 24.953125 24.5 24.953125 25.433594 L 24.953125 41.828125 L 13.648438 41.828125 C 13.648438 38.082031 10.609375 35.042969 6.863281 35.042969 C 3.292969 35.042969 0.152344 37.84375 0.0859375 41.828125 C 0.0195312 45.671875 3.476562 48.578125 6.292969 48.578125 C 7.144531 48.578125 7.878906 47.933594 7.976562 47.070312 C 8.078125 46.136719 7.410156 45.300781 6.476562 45.195312 C 4.828125 45.019531 3.441406 43.578125 3.476562 41.761719 C 3.503906 40.042969 4.851562 38.597656 6.566406 38.449219 C 8.570312 38.273438 10.257812 39.855469 10.257812 41.824219 C 10.257812 44.433594 11.246094 46.808594 12.863281 48.609375 L 12.875 48.609375 C 14.734375 50.683594 17.421875 52 20.429688 52 L 41.910156 52 C 46.835938 52 50.949219 48.496094 51.882812 43.839844 C 52.09375 42.796875 51.28125 41.828125 50.214844 41.828125 Z M 28.34375 27.128906 L 41.910156 27.128906 L 41.910156 41.824219 C 39.648438 41.824219 30.605469 41.824219 28.34375 41.824219 Z M 41.910156 48.609375 L 20.429688 48.609375 C 18.496094 48.609375 16.710938 47.804688 15.398438 46.34375 L 15.160156 46.078125 C 14.9375 45.804688 14.738281 45.515625 14.566406 45.21875 L 47.78125 45.21875 C 46.605469 47.242188 44.414062 48.609375 41.910156 48.609375 Z M 41.910156 48.609375 "/>
</g>
</svg>
