<?xml version="1.0" encoding="UTF-8"?>
<svg xmlns="http://www.w3.org/2000/svg" xmlns:xlink="http://www.w3.org/1999/xlink" width="52px" height="52px" viewBox="0 0 52 52" version="1.1">
<g id="surface1">
<path style=" stroke:none;fill-rule:nonzero;fill:rgb(0%,0%,0%);fill-opacity:1;" d="M 34.417969 24.921875 C 38.753906 23.417969 41.636719 20.796875 41.636719 17.804688 L 41.636719 17.800781 C 41.625 16.925781 37.617188 16.179688 31.933594 15.867188 L 31.90625 15.714844 C 31.785156 15.25 31.527344 14.808594 31.230469 14.410156 C 31.628906 14.703125 32.074219 14.960938 32.539062 15.085938 C 34.058594 15.492188 34.964844 15.074219 35.164062 14.3125 C 35.371094 13.554688 34.796875 12.738281 33.273438 12.332031 C 32.816406 12.207031 32.296875 12.207031 31.808594 12.261719 C 32.261719 12.0625 32.707031 11.808594 33.042969 11.46875 C 34.15625 10.355469 34.25 9.363281 33.691406 8.804688 C 33.136719 8.25 32.140625 8.339844 31.027344 9.453125 C 30.691406 9.792969 30.433594 10.234375 30.234375 10.691406 C 30.296875 10.199219 30.296875 9.683594 30.167969 9.222656 C 29.761719 7.703125 28.949219 7.125 28.183594 7.328125 C 27.425781 7.53125 27.007812 8.441406 27.414062 9.960938 C 27.539062 10.421875 27.792969 10.867188 28.089844 11.265625 C 27.691406 10.96875 27.246094 10.714844 26.785156 10.589844 C 25.265625 10.183594 24.359375 10.601562 24.15625 11.359375 C 23.953125 12.121094 24.527344 12.9375 26.050781 13.34375 C 26.511719 13.464844 27.023438 13.46875 27.515625 13.410156 C 27.0625 13.609375 26.617188 13.863281 26.277344 14.203125 C 25.734375 14.746094 25.4375 15.261719 25.335938 15.714844 C 17.015625 15.761719 10.371094 16.671875 10.363281 17.796875 L 10.363281 17.800781 C 10.363281 20.792969 13.242188 23.414062 17.582031 24.917969 C 11.773438 27.957031 7.804688 34.03125 7.804688 41.039062 C 7.804688 45.160156 9.191406 48.949219 11.496094 51.996094 L 17.953125 51.996094 C 16.675781 50.304688 15.90625 48.203125 15.90625 45.921875 C 15.90625 40.34375 20.425781 35.824219 26 35.824219 C 31.574219 35.824219 36.089844 40.34375 36.089844 45.921875 C 36.089844 48.203125 35.324219 50.304688 34.046875 51.996094 L 40.5 51.996094 C 42.808594 48.949219 44.195312 45.160156 44.195312 41.039062 C 44.195312 34.03125 40.222656 27.960938 34.417969 24.921875 Z M 29.058594 15.753906 L 28.667969 15.742188 C 28.828125 15.503906 28.96875 15.25 29.085938 14.980469 C 29.058594 15.238281 29.046875 15.496094 29.058594 15.753906 Z M 29.367188 11.738281 C 29.972656 11.574219 30.597656 11.9375 30.761719 12.542969 C 30.921875 13.148438 30.5625 13.773438 29.957031 13.9375 C 29.347656 14.101562 28.722656 13.742188 28.558594 13.132812 C 28.398438 12.527344 28.757812 11.898438 29.367188 11.738281 Z M 26 19.289062 C 17.824219 19.289062 12.34375 18.460938 11.132812 17.804688 C 12.3125 17.167969 17.535156 16.367188 25.335938 16.324219 C 25.382812 16.535156 25.480469 16.71875 25.632812 16.871094 C 26.167969 17.40625 27.105469 17.332031 28.164062 16.339844 C 28.496094 16.347656 28.820312 16.355469 29.140625 16.363281 L 29.15625 16.453125 C 29.5625 17.972656 30.378906 18.550781 31.140625 18.347656 C 31.757812 18.179688 32.121094 17.53125 32.027344 16.488281 C 36.828125 16.761719 39.984375 17.328125 40.867188 17.804688 C 39.652344 18.457031 34.167969 19.289062 26 19.289062 Z M 26 19.289062 "/>
<path style=" stroke:none;fill-rule:nonzero;fill:rgb(0%,0%,0%);fill-opacity:1;" d="M 26.96875 44.226562 C 28.34375 42.523438 27.03125 40.296875 25.527344 39.039062 C 25.808594 40.410156 23.527344 42.34375 25.003906 44.226562 C 23.117188 44.324219 21.710938 44.691406 21.710938 45.128906 L 21.710938 51.070312 C 21.710938 51.582031 23.628906 52 25.996094 52 C 28.363281 52 30.28125 51.582031 30.28125 51.070312 L 30.28125 45.128906 C 30.28125 44.691406 28.863281 44.324219 26.96875 44.226562 Z M 25.996094 45.871094 C 23.292969 45.871094 21.898438 45.351562 21.898438 45.128906 C 21.898438 44.90625 23.054688 44.503906 25.160156 44.410156 C 25.300781 44.570312 25.464844 44.730469 25.671875 44.886719 C 25.464844 44.699219 25.332031 44.511719 25.242188 44.324219 L 25.195312 44.214844 C 24.871094 43.292969 25.832031 42.398438 26.019531 41.300781 C 26.679688 42.367188 27.234375 43.394531 26.800781 44.277344 L 26.773438 44.332031 L 26.527344 44.675781 L 26.808594 44.40625 C 28.933594 44.496094 30.097656 44.90625 30.097656 45.128906 C 30.09375 45.351562 28.699219 45.871094 25.996094 45.871094 Z M 25.996094 45.871094 "/>
<path style=" stroke:none;fill-rule:nonzero;fill:rgb(0%,0%,0%);fill-opacity:1;" d="M 26 43.335938 L 25.808594 43.523438 L 25.808594 45.128906 L 26 45.316406 L 26.1875 45.128906 L 26.1875 43.523438 Z M 26 43.335938 "/>
<path style=" stroke:none;fill-rule:nonzero;fill:rgb(0%,0%,0%);fill-opacity:1;" d="M 18.539062 7.300781 C 18.894531 7.300781 19.265625 7.203125 19.609375 7.066406 C 19.320312 7.296875 19.050781 7.570312 18.871094 7.878906 C 18.285156 8.894531 18.410156 9.628906 18.921875 9.921875 C 19.425781 10.214844 20.125 9.953125 20.714844 8.941406 C 20.890625 8.632812 20.992188 8.261719 21.046875 7.894531 C 21.097656 8.261719 21.199219 8.632812 21.378906 8.9375 C 21.964844 9.953125 22.664062 10.214844 23.171875 9.921875 C 23.679688 9.628906 23.804688 8.894531 23.21875 7.878906 C 23.039062 7.566406 22.769531 7.296875 22.476562 7.066406 C 22.824219 7.203125 23.191406 7.300781 23.550781 7.300781 C 24.726562 7.300781 25.296875 6.828125 25.296875 6.238281 C 25.296875 5.652344 24.722656 5.175781 23.550781 5.175781 C 23.195312 5.175781 22.824219 5.273438 22.476562 5.410156 C 22.765625 5.183594 23.039062 4.914062 23.21875 4.601562 C 23.804688 3.585938 23.679688 2.851562 23.171875 2.558594 C 22.664062 2.261719 21.964844 2.519531 21.375 3.535156 C 21.195312 3.84375 21.097656 4.214844 21.042969 4.582031 C 20.988281 4.214844 20.890625 3.84375 20.710938 3.535156 C 20.125 2.519531 19.425781 2.261719 18.917969 2.558594 C 18.40625 2.851562 18.285156 3.582031 18.871094 4.601562 C 19.046875 4.910156 19.320312 5.183594 19.609375 5.410156 C 19.265625 5.273438 18.894531 5.175781 18.539062 5.175781 C 17.363281 5.175781 16.789062 5.652344 16.789062 6.238281 C 16.789062 6.828125 17.363281 7.300781 18.539062 7.300781 Z M 20.617188 5.5 C 21.027344 5.265625 21.542969 5.40625 21.777344 5.8125 C 22.015625 6.21875 21.875 6.738281 21.46875 6.972656 C 21.0625 7.207031 20.542969 7.070312 20.308594 6.664062 C 20.074219 6.257812 20.210938 5.738281 20.617188 5.5 Z M 20.617188 5.5 "/>
<path style=" stroke:none;fill-rule:nonzero;fill:rgb(0%,0%,0%);fill-opacity:1;" d="M 28.648438 3.332031 C 28.898438 3.367188 29.164062 3.335938 29.421875 3.273438 C 29.195312 3.40625 28.980469 3.570312 28.820312 3.769531 C 28.3125 4.425781 28.328125 4.953125 28.65625 5.207031 C 28.984375 5.464844 29.496094 5.351562 30.011719 4.695312 C 30.164062 4.5 30.273438 4.25 30.347656 3.996094 C 30.347656 4.257812 30.382812 4.527344 30.476562 4.761719 C 30.789062 5.535156 31.253906 5.78125 31.640625 5.628906 C 32.027344 5.472656 32.183594 4.96875 31.875 4.199219 C 31.777344 3.964844 31.617188 3.746094 31.433594 3.558594 C 31.664062 3.6875 31.914062 3.792969 32.164062 3.828125 C 32.988281 3.945312 33.4375 3.667969 33.496094 3.257812 C 33.554688 2.84375 33.199219 2.453125 32.375 2.335938 C 32.125 2.304688 31.851562 2.335938 31.601562 2.398438 C 31.828125 2.265625 32.042969 2.101562 32.199219 1.902344 C 32.714844 1.246094 32.695312 0.71875 32.367188 0.460938 C 32.039062 0.207031 31.523438 0.320312 31.011719 0.976562 C 30.855469 1.175781 30.746094 1.425781 30.675781 1.675781 C 30.675781 1.414062 30.640625 1.144531 30.546875 0.910156 C 30.234375 0.140625 29.769531 -0.109375 29.382812 0.046875 C 29 0.203125 28.835938 0.703125 29.148438 1.476562 C 29.242188 1.710938 29.40625 1.929688 29.585938 2.117188 C 29.359375 1.988281 29.109375 1.878906 28.855469 1.847656 C 28.03125 1.730469 27.582031 2.007812 27.523438 2.417969 C 27.46875 2.828125 27.824219 3.214844 28.648438 3.332031 Z M 30.597656 2.238281 C 30.921875 2.28125 31.15625 2.585938 31.105469 2.917969 C 31.0625 3.246094 30.757812 3.476562 30.425781 3.425781 C 30.097656 3.382812 29.867188 3.078125 29.914062 2.746094 C 29.960938 2.417969 30.265625 2.191406 30.597656 2.238281 Z M 30.597656 2.238281 "/>
</g>
</svg>
