<?xml version="1.0" encoding="UTF-8"?>
<svg xmlns="http://www.w3.org/2000/svg" xmlns:xlink="http://www.w3.org/1999/xlink" width="94px" height="94px" viewBox="0 0 94 94" version="1.1">
<g id="surface1">
<path style=" stroke:none;fill-rule:nonzero;fill:rgb(0%,0%,0%);fill-opacity:1;" d="M 35.695312 59.730469 C 29.050781 59.730469 23.65625 58.304688 23.65625 56.554688 L 23.65625 86.402344 C 23.65625 88.160156 29.050781 89.585938 35.695312 89.585938 C 42.339844 89.585938 47.734375 88.160156 47.734375 86.402344 L 47.734375 56.546875 C 47.734375 58.304688 42.339844 59.730469 35.695312 59.730469 Z M 35.695312 59.730469 "/>
<path style=" stroke:none;fill-rule:nonzero;fill:rgb(0%,0%,0%);fill-opacity:1;" d="M 37.347656 39.289062 C 31.308594 42.507812 27.960938 49 33.433594 56.382812 C 35.976562 52.527344 35.320312 47.15625 35.320312 47.15625 C 35.320312 47.15625 36.683594 50.207031 37.644531 54.78125 C 44.59375 47 37.652344 43.144531 37.347656 39.289062 Z M 37.347656 39.289062 "/>
<path style=" stroke:none;fill-rule:nonzero;fill:rgb(0%,0%,0%);fill-opacity:1;" d="M 60.105469 52.085938 C 55.199219 52.085938 51.214844 51.03125 51.214844 49.726562 L 51.214844 91.648438 C 51.214844 92.949219 55.199219 94 60.105469 94 C 65.019531 94 69.003906 92.949219 69.003906 91.648438 L 69.003906 49.726562 C 69.003906 51.03125 65.019531 52.085938 60.105469 52.085938 Z M 60.105469 52.085938 "/>
<path style=" stroke:none;fill-rule:nonzero;fill:rgb(0%,0%,0%);fill-opacity:1;" d="M 59.730469 40.339844 C 59.730469 40.339844 61.101562 43.390625 62.0625 47.960938 C 69.011719 40.179688 62.0625 36.332031 61.765625 32.46875 C 55.722656 35.6875 52.375 42.183594 57.847656 49.5625 C 60.386719 45.714844 59.730469 40.339844 59.730469 40.339844 Z M 59.730469 40.339844 "/>
<path style=" stroke:none;fill-rule:nonzero;fill:rgb(0%,0%,0%);fill-opacity:1;" d="M 24.445312 18.414062 C 25.492188 20.222656 26.734375 20.691406 27.644531 20.167969 C 28.550781 19.644531 28.769531 18.339844 27.722656 16.53125 C 27.40625 15.980469 26.925781 15.5 26.410156 15.082031 C 27.023438 15.332031 27.679688 15.507812 28.308594 15.507812 C 30.398438 15.507812 31.421875 14.660156 31.421875 13.613281 C 31.421875 12.570312 30.398438 11.722656 28.308594 11.722656 C 27.679688 11.722656 27.015625 11.898438 26.410156 12.136719 C 26.925781 11.730469 27.40625 11.25 27.722656 10.699219 C 28.769531 8.890625 28.542969 7.578125 27.644531 7.0625 C 26.734375 6.539062 25.492188 6.996094 24.445312 8.804688 C 24.128906 9.355469 23.953125 10.019531 23.859375 10.667969 C 23.761719 10.019531 23.585938 9.355469 23.265625 8.804688 C 22.230469 6.996094 20.984375 6.539062 20.082031 7.0625 C 19.171875 7.578125 18.953125 8.890625 19.996094 10.699219 C 20.308594 11.242188 20.796875 11.722656 21.3125 12.136719 C 20.695312 11.890625 20.039062 11.722656 19.40625 11.722656 C 17.3125 11.722656 16.296875 12.5625 16.296875 13.613281 C 16.296875 14.652344 17.3125 15.5 19.40625 15.5 C 20.039062 15.5 20.695312 15.332031 21.3125 15.082031 C 20.796875 15.492188 20.308594 15.980469 19.992188 16.523438 C 18.953125 18.332031 19.171875 19.636719 20.082031 20.160156 C 20.980469 20.683594 22.230469 20.222656 23.265625 18.414062 C 23.585938 17.863281 23.761719 17.207031 23.859375 16.550781 C 23.953125 17.207031 24.128906 17.863281 24.445312 18.414062 Z M 22.546875 14.371094 C 22.128906 13.640625 22.378906 12.71875 23.105469 12.300781 C 23.824219 11.882812 24.75 12.132812 25.167969 12.859375 C 25.582031 13.578125 25.335938 14.503906 24.617188 14.921875 C 23.886719 15.34375 22.964844 15.089844 22.546875 14.371094 Z M 22.546875 14.371094 "/>
<path style=" stroke:none;fill-rule:nonzero;fill:rgb(0%,0%,0%);fill-opacity:1;" d="M 53.355469 26.097656 C 53.714844 24.75 52.691406 23.296875 49.988281 22.574219 C 49.175781 22.355469 48.257812 22.355469 47.382812 22.453125 C 48.1875 22.109375 48.976562 21.648438 49.578125 21.042969 C 51.5625 19.066406 51.722656 17.300781 50.734375 16.3125 C 49.746094 15.316406 47.972656 15.476562 45.996094 17.460938 C 45.398438 18.0625 44.9375 18.855469 44.585938 19.664062 C 44.691406 18.789062 44.691406 17.871094 44.464844 17.054688 C 43.746094 14.347656 42.289062 13.324219 40.941406 13.683594 C 39.585938 14.042969 38.84375 15.65625 39.570312 18.359375 C 39.789062 19.183594 40.25 19.976562 40.773438 20.691406 C 40.066406 20.160156 39.273438 19.699219 38.449219 19.480469 C 35.746094 18.753906 34.132812 19.496094 33.773438 20.851562 C 33.40625 22.207031 34.429688 23.65625 37.136719 24.375 C 37.960938 24.59375 38.871094 24.601562 39.753906 24.496094 C 38.941406 24.847656 38.152344 25.308594 37.542969 25.90625 C 35.566406 27.886719 35.40625 29.652344 36.394531 30.644531 C 37.382812 31.632812 39.15625 31.472656 41.132812 29.488281 C 41.730469 28.894531 42.191406 28.097656 42.542969 27.292969 C 42.4375 28.167969 42.4375 29.078125 42.664062 29.898438 C 43.378906 32.601562 44.832031 33.632812 46.1875 33.273438 C 47.535156 32.90625 48.285156 31.296875 47.558594 28.589844 C 47.339844 27.765625 46.878906 26.972656 46.351562 26.269531 C 47.054688 26.789062 47.855469 27.25 48.671875 27.46875 C 51.386719 28.195312 52.996094 27.453125 53.355469 26.097656 Z M 44.089844 25.433594 C 43.011719 25.722656 41.894531 25.082031 41.613281 24 C 41.316406 22.921875 41.957031 21.8125 43.039062 21.523438 C 44.125 21.234375 45.234375 21.875 45.523438 22.957031 C 45.808594 24.03125 45.171875 25.144531 44.089844 25.433594 Z M 44.089844 25.433594 "/>
<path style=" stroke:none;fill-rule:nonzero;fill:rgb(0%,0%,0%);fill-opacity:1;" d="M 39.15625 5.929688 C 39.605469 5.996094 40.078125 5.9375 40.539062 5.832031 C 40.128906 6.066406 39.746094 6.355469 39.472656 6.707031 C 38.5625 7.878906 38.589844 8.820312 39.167969 9.269531 C 39.753906 9.730469 40.671875 9.53125 41.582031 8.367188 C 41.859375 8.007812 42.058594 7.5625 42.183594 7.117188 C 42.183594 7.582031 42.246094 8.0625 42.410156 8.480469 C 42.96875 9.859375 43.800781 10.296875 44.480469 10.019531 C 45.171875 9.746094 45.453125 8.847656 44.902344 7.476562 C 44.726562 7.0625 44.4375 6.671875 44.117188 6.332031 C 44.519531 6.558594 44.972656 6.75 45.417969 6.820312 C 46.878906 7.027344 47.683594 6.53125 47.785156 5.796875 C 47.890625 5.0625 47.261719 4.371094 45.785156 4.160156 C 45.339844 4.101562 44.859375 4.160156 44.410156 4.265625 C 44.8125 4.03125 45.199219 3.742188 45.476562 3.382812 C 46.386719 2.222656 46.355469 1.277344 45.769531 0.824219 C 45.191406 0.367188 44.273438 0.570312 43.355469 1.738281 C 43.082031 2.089844 42.898438 2.535156 42.761719 2.980469 C 42.761719 2.519531 42.699219 2.035156 42.539062 1.617188 C 41.980469 0.246094 41.152344 -0.199219 40.46875 0.078125 C 39.777344 0.351562 39.492188 1.25 40.042969 2.621094 C 40.214844 3.035156 40.503906 3.425781 40.828125 3.761719 C 40.417969 3.539062 39.972656 3.347656 39.527344 3.277344 C 38.066406 3.070312 37.269531 3.566406 37.164062 4.300781 C 37.058594 5.035156 37.691406 5.726562 39.15625 5.929688 Z M 42.621094 3.988281 C 43.199219 4.066406 43.617188 4.609375 43.53125 5.195312 C 43.457031 5.785156 42.910156 6.191406 42.324219 6.109375 C 41.738281 6.03125 41.328125 5.488281 41.414062 4.902344 C 41.492188 4.316406 42.035156 3.90625 42.621094 3.988281 Z M 42.621094 3.988281 "/>
<path style=" stroke:none;fill-rule:nonzero;fill:rgb(0%,0%,0%);fill-opacity:1;" d="M 61.335938 14.101562 C 61.671875 14.152344 62.035156 14.109375 62.371094 14.023438 C 62.070312 14.199219 61.777344 14.425781 61.566406 14.6875 C 60.875 15.5625 60.902344 16.277344 61.339844 16.621094 C 61.785156 16.96875 62.476562 16.8125 63.164062 15.9375 C 63.375 15.660156 63.515625 15.332031 63.621094 14.992188 C 63.621094 15.34375 63.664062 15.710938 63.792969 16.023438 C 64.207031 17.058594 64.835938 17.390625 65.351562 17.1875 C 65.867188 16.976562 66.085938 16.304688 65.671875 15.265625 C 65.542969 14.949219 65.324219 14.660156 65.078125 14.398438 C 65.386719 14.574219 65.71875 14.714844 66.058594 14.765625 C 67.167969 14.921875 67.773438 14.554688 67.851562 13.996094 C 67.921875 13.445312 67.449219 12.914062 66.339844 12.765625 C 66.007812 12.71875 65.640625 12.761719 65.304688 12.84375 C 65.605469 12.667969 65.894531 12.441406 66.101562 12.171875 C 66.800781 11.296875 66.777344 10.585938 66.328125 10.238281 C 65.890625 9.898438 65.195312 10.046875 64.511719 10.929688 C 64.300781 11.199219 64.160156 11.539062 64.058594 11.878906 C 64.054688 11.523438 64.011719 11.15625 63.882812 10.847656 C 63.46875 9.808594 62.839844 9.46875 62.324219 9.679688 C 61.800781 9.886719 61.582031 10.5625 62.003906 11.601562 C 62.132812 11.914062 62.351562 12.207031 62.597656 12.464844 C 62.289062 12.292969 61.949219 12.152344 61.617188 12.101562 C 60.507812 11.949219 59.90625 12.316406 59.832031 12.871094 C 59.746094 13.421875 60.226562 13.945312 61.335938 14.101562 Z M 63.945312 12.632812 C 64.390625 12.6875 64.703125 13.097656 64.640625 13.542969 C 64.574219 13.980469 64.167969 14.292969 63.726562 14.234375 C 63.285156 14.171875 62.972656 13.761719 63.035156 13.316406 C 63.101562 12.878906 63.507812 12.570312 63.945312 12.632812 Z M 63.945312 12.632812 "/>
<path style=" stroke:none;fill-rule:nonzero;fill:rgb(0%,0%,0%);fill-opacity:1;" d="M 20.441406 32.671875 C 20.109375 32.628906 19.75 32.671875 19.40625 32.75 C 19.707031 32.574219 19.996094 32.355469 20.210938 32.085938 C 20.902344 31.210938 20.878906 30.496094 20.433594 30.152344 C 19.992188 29.804688 19.304688 29.960938 18.613281 30.84375 C 18.402344 31.105469 18.261719 31.445312 18.160156 31.78125 C 18.160156 31.429688 18.113281 31.070312 17.984375 30.753906 C 17.570312 29.714844 16.941406 29.382812 16.425781 29.585938 C 15.910156 29.796875 15.691406 30.46875 16.105469 31.507812 C 16.242188 31.824219 16.460938 32.113281 16.699219 32.367188 C 16.394531 32.199219 16.058594 32.058594 15.71875 32.007812 C 14.609375 31.855469 14.007812 32.226562 13.933594 32.777344 C 13.855469 33.335938 14.335938 33.859375 15.4375 34.015625 C 15.773438 34.0625 16.136719 34.015625 16.480469 33.9375 C 16.175781 34.113281 15.878906 34.332031 15.675781 34.601562 C 14.984375 35.476562 15.003906 36.1875 15.449219 36.535156 C 15.886719 36.875 16.578125 36.726562 17.273438 35.851562 C 17.476562 35.582031 17.625 35.242188 17.722656 34.910156 C 17.722656 35.257812 17.773438 35.617188 17.894531 35.933594 C 18.316406 36.972656 18.9375 37.304688 19.460938 37.101562 C 19.976562 36.886719 20.195312 36.21875 19.773438 35.179688 C 19.644531 34.863281 19.425781 34.566406 19.183594 34.3125 C 19.488281 34.488281 19.828125 34.628906 20.167969 34.679688 C 21.269531 34.832031 21.875 34.464844 21.953125 33.910156 C 22.03125 33.351562 21.558594 32.828125 20.441406 32.671875 Z M 17.828125 34.148438 C 17.386719 34.085938 17.074219 33.675781 17.136719 33.230469 C 17.203125 32.785156 17.605469 32.480469 18.054688 32.546875 C 18.492188 32.601562 18.804688 33.011719 18.742188 33.457031 C 18.683594 33.902344 18.269531 34.203125 17.828125 34.148438 Z M 17.828125 34.148438 "/>
<path style=" stroke:none;fill-rule:nonzero;fill:rgb(0%,0%,0%);fill-opacity:1;" d="M 77.566406 22.390625 C 77.011719 22.308594 76.402344 22.378906 75.839844 22.511719 C 76.339844 22.222656 76.828125 21.863281 77.1875 21.410156 C 78.332031 19.960938 78.300781 18.78125 77.574219 18.203125 C 76.847656 17.632812 75.691406 17.871094 74.546875 19.328125 C 74.199219 19.765625 73.953125 20.324219 73.789062 20.886719 C 73.785156 20.300781 73.714844 19.695312 73.507812 19.171875 C 72.824219 17.449219 71.792969 16.882812 70.921875 17.230469 C 70.0625 17.570312 69.703125 18.683594 70.386719 20.40625 C 70.589844 20.9375 70.953125 21.425781 71.355469 21.855469 C 70.851562 21.558594 70.289062 21.324219 69.738281 21.234375 C 67.902344 20.964844 66.890625 21.585938 66.757812 22.496094 C 66.625 23.421875 67.40625 24.289062 69.242188 24.566406 C 69.800781 24.644531 70.410156 24.574219 70.972656 24.4375 C 70.464844 24.734375 69.984375 25.097656 69.632812 25.539062 C 68.480469 26.988281 68.507812 28.167969 69.242188 28.746094 C 69.964844 29.324219 71.121094 29.078125 72.273438 27.617188 C 72.617188 27.1875 72.867188 26.621094 73.027344 26.070312 C 73.027344 26.648438 73.097656 27.25 73.308594 27.773438 C 73.996094 29.503906 75.027344 30.066406 75.894531 29.722656 C 76.757812 29.375 77.117188 28.265625 76.429688 26.535156 C 76.226562 26.015625 75.867188 25.527344 75.464844 25.097656 C 75.972656 25.386719 76.53125 25.625 77.089844 25.710938 C 78.925781 25.984375 79.925781 25.371094 80.0625 24.445312 C 80.195312 23.535156 79.402344 22.660156 77.566406 22.390625 Z M 73.902344 24.730469 C 73.210938 25.003906 72.425781 24.664062 72.160156 23.972656 C 71.882812 23.289062 72.214844 22.503906 72.90625 22.230469 C 73.601562 21.953125 74.382812 22.292969 74.652344 22.984375 C 74.925781 23.667969 74.589844 24.453125 73.902344 24.730469 Z M 73.902344 24.730469 "/>
</g>
</svg>
